<svg id="Layer_1" data-name="Layer 1" xmlns="http://www.w3.org/2000/svg" viewBox="0 0 1294.347 429.96889"><defs><style>.cls-1{fill:#4f8df3;}.cls-2{fill:#4e8df3;}.cls-3{fill:#eb5144;}.cls-4{fill:#fac019;}.cls-5{fill:#eb4f42;}.cls-6{fill:#3bab59;}.cls-7{fill:#2ba64f;}.cls-8{fill:#26a64c;}.cls-9{fill:#3480f2;}.cls-10{fill:#fcedeb;}</style></defs><path class="cls-1" d="M348.04765,327.60564c17.398,73.11136-20.68974,143.57782-92.699,169.81614-78.1983,28.49357-169.55461-8.93157-207.57929-85.03725-37.61853-75.29275-12.43129-165.50784,59.36114-212.61846,65.9537-43.27924,155.625-34.69279,203.83537,23.1153l-29.38081,24.65048c-76.69729-39.132-127.14986-36.18907-170.41947,9.59108-35.04635,37.07978-41.00722,99.07287-13.963,145.2143,26.29035,44.85516,81.548,66.2691,135.91734,52.67176,39.33247-9.83668,67.07833-42.0899,67.88854-82.34486h-101.474V327.60564Z" transform="translate(-30.4077 -172.48519)"/><path class="cls-2" d="M1036.115,307.40147c.22848,65.24855,1.99726,130.53953.2009,195.73226-1.452,52.68826-32.10018,88.59184-77.096,97.065-50.77031,9.56055-91.93532-11.32911-116.74777-61.64128,11.503-5.4012,23.00776-10.80314,35.9328-16.872,21.2257,26.24922,44.45587,47.47128,80.78936,32.31231,29.70446-12.39328,33.2153-38.08694,33.20819-66.30514-63.79911,29.03453-106.79022,20.57545-140.37414-26.88713-28.84027-40.75867-24.12756-101.32262,10.76378-138.32438,34.82563-36.9323,77.388-41.33816,124.42722-20.50608q24.04436,0,48.0888,0c-.58186.61307-1.77261,1.51464-1.64211,1.79012A25.26069,25.26069,0,0,0,1036.115,307.40147ZM994.94365,399.511c.26728-38.22562-23.97648-66.45261-56.72406-66.04377-31.99417.39943-59.96472,31.22869-59.4281,65.50192.56831,36.30483,26.62068,63.72942,60.35961,63.53917C972.46979,462.32042,994.67983,437.24232,994.94365,399.511Z" transform="translate(-30.4077 -172.48519)"/><path class="cls-3" d="M1291.20331,435.10875c11.036,7.76938,20.84736,14.67662,30.49154,21.46611-24.76655,42.46061-72.51244,59.56805-119.71217,44.43708-45.8939-14.71233-76.92505-62.89771-72.19084-112.09868,5.22221-54.272,42.16926-93.54364,92.34788-98.15828,46.76166-4.30043,84.09041,24.59048,102.615,81.77916-44.35959,18.7594-89.06143,37.66358-133.591,56.49483C1200.74836,470.92871,1243.48948,473.99005,1291.20331,435.10875Zm-18.27019-80.24412c-19.87883-22.9606-39.47813-27.74076-60.92932-17.40809-21.88274,10.54052-37.45534,26.647-32.03913,56.47387C1210.64832,381.037,1239.49878,368.91392,1272.93312,354.86463Z" transform="translate(-30.4077 -172.48519)"/><path class="cls-4" d="M711.90763,290.81142c58.83931,1.67221,105.71623,51.12149,104.20043,109.9182-1.53357,59.483-50.16012,106.608-108.75683,105.39829-60.82266-1.25554-107.56257-50.577-105.59723-111.42959C603.65778,335.749,653.07892,289.13946,711.90763,290.81142Zm56.68395,106.74163c-.34553-35.75316-27.13813-64.438-59.97883-64.215-33.65918.22863-59.2035,27.89418-59.454,64.39131-.26079,37.985,26.40917,66.3567,61.31482,65.22732C744.547,461.85415,768.94768,434.39464,768.59158,397.55305Z" transform="translate(-30.4077 -172.48519)"/><path class="cls-5" d="M584.1236,398.256c-.10508,61.06259-45.31676,107.46834-105.1793,107.95723-59.31834.48445-107.15454-46.5356-107.98864-106.14619-.8533-60.983,47.48782-110.10538,107.76455-109.50622C539.18785,291.16193,584.22868,337.18206,584.1236,398.256Zm-166.02621-1.2439c-.38657,36.62634,24.17211,64.50228,57.86195,65.67756,34.5109,1.204,63.24669-28.13682,63.04308-64.37037-.19717-35.085-27.08775-63.89844-60.2744-64.58436C445.84619,333.05533,418.47087,361.62561,418.09739,397.01213Z" transform="translate(-30.4077 -172.48519)"/><path class="cls-6" d="M1067.0381,485.18332q-.04-143.85315-.07965-287.70629.32646-3.125.65236-6.24986,20.82408.11784,41.64816.2358c-.67358.58914-2.01756,1.43508-1.907,1.72366a26.48134,26.48134,0,0,0,2.26184,3.99208q.00813,144.142.01636,288.28409c-.74369.52246-2.19322,1.23969-2.11189,1.53427a26.68258,26.68258,0,0,0,1.87948,4.22345q-20.85436.07341-41.70865.14691Q1067.36353,488.27547,1067.0381,485.18332Z" transform="translate(-30.4077 -172.48519)"/><path class="cls-7" d="M1067.6109,191.22717q-.32617,3.12492-.65235,6.24986Q1067.28444,194.35216,1067.6109,191.22717Z" transform="translate(-30.4077 -172.48519)"/><path class="cls-8" d="M1109.61385,197.17871a26.48134,26.48134,0,0,1-2.26184-3.99208c-.1106-.28858,1.23338-1.13452,1.907-1.72366A5.65471,5.65471,0,0,1,1109.61385,197.17871Z" transform="translate(-30.4077 -172.48519)"/><path class="cls-9" d="M1036.115,307.40147a25.26069,25.26069,0,0,1-2.449-3.63632c-.1305-.27548,1.06025-1.17705,1.64211-1.79012A5.34705,5.34705,0,0,1,1036.115,307.40147Z" transform="translate(-30.4077 -172.48519)"/><path class="cls-7" d="M1067.0381,485.18332q.32549,3.0921.651,6.18411Q1067.36353,488.27525,1067.0381,485.18332Z" transform="translate(-30.4077 -172.48519)"/><path class="cls-8" d="M1109.3978,491.22052a26.68258,26.68258,0,0,1-1.87948-4.22345c-.08133-.29458,1.3682-1.01181,2.11189-1.53427A5.98569,5.98569,0,0,1,1109.3978,491.22052Z" transform="translate(-30.4077 -172.48519)"/><path class="cls-10" d="M1272.93312,354.86463c-33.43434,14.04929-62.2848,26.17239-92.96845,39.06578-5.41621-29.82687,10.15639-45.93335,32.03913-56.47387C1233.455,327.12387,1253.05429,331.904,1272.93312,354.86463Z" transform="translate(-30.4077 -172.48519)"/></svg>