<svg id="Layer_1" data-name="Layer 1" xmlns="http://www.w3.org/2000/svg" viewBox="0 0 261.45698 361.70762"><defs><style>.cls-1{fill:#4988f2;}.cls-2{fill:#e64b3f;}.cls-3{fill:#f6ba17;}.cls-4{fill:#40a859;}</style></defs><path class="cls-1" d="M312.82089,180.89881c0,20.46445-.50026,40.94551.17867,61.38741.44092,13.27549-4.97921,23.789-12.48164,33.73826A47.22166,47.22166,0,0,1,271.86271,294.345c-16.22617,3.18666-32.0467.61273-44.87418-11.13837-8.28562-7.59041-15.4129-15.98628-18.10444-27.60562a36.73338,36.73338,0,0,1-1.38857-8.114q-.101-67.65783-.00139-135.31578c.02608-10.69879,4.71246-19.841,11.40223-27.80495,7.57721-9.02041,16.62044-15.8841,28.53875-18.75774,15.74693-3.79675,30.45514-1.12711,43.05557,8.19453,9.9621,7.36985,18.019,16.93611,20.92949,30.06633a45.12337,45.12337,0,0,1,1.31891,9.372C312.89108,135.793,312.82089,158.34614,312.82089,180.89881Z" transform="translate(-129.48502 -63.94122)"/><path class="cls-2" d="M199.92094,310.19959c10.75329,8.63577,22.91861,15.58322,35.89944,18.9522,12.00016,3.11442,24.50984,5.927,37.91582,2.025,8.9458-2.60377,18.24154-4.07044,26.61094-8.46583A87.7334,87.7334,0,0,0,330.92789,296.587c7.03235-9.51056,12.38225-18.96351,14.68367-30.3842.29033-1.44073,2.34614-2.788,2.19822-4.011-.80171-6.62863,1.552-12.65418,3.47866-19.2942h38.53908c2.937,14.12674-.34194,28.051-5.05236,41.66369-6.28439,18.16128-15.70541,34.50915-30.02725,47.6535-7.82669,7.18321-15.18129,15.13345-23.91,21.01429A98.25437,98.25437,0,0,1,298.176,367.96255c-6.04666,1.39635-12.34642,1.993-17.97065,4.95924h-40.1422c-4.90569-3.63784-11.07163-3.31531-16.57953-4.74628-10.86075-2.82162-28.70586-10.67983-37.34629-17.69986-4.87736-3.9627-11.04529-6.43607-13.81415-12.67829Q186.12206,323.99849,199.92094,310.19959Z" transform="translate(-129.48502 -63.94122)"/><path class="cls-3" d="M199.92094,310.19959q-13.79889,13.79888-27.59776,27.59777c-15.05422-11.27715-25.3406-26.086-32.66933-43.26268-6.95293-16.296-11.87381-32.88809-9.61308-51.47415h39.345c1.79127,8.63492,3.39912,17.49732,5.49748,26.242,3.19953,13.33383,10.89988,24.18374,19.7236,34.34856C196.44861,305.77281,198.15315,308.01366,199.92094,310.19959Z" transform="translate(-129.48502 -63.94122)"/><path class="cls-4" d="M240.06315,372.92179h40.1422v52.51173c-6.40527.40239-12.9402.10661-19.44493.16235-6.62448.05678-13.24982.01256-20.69727.01256Z" transform="translate(-129.48502 -63.94122)"/></svg>