<svg id="Layer_1" data-name="Layer 1" xmlns="http://www.w3.org/2000/svg" viewBox="0 0 206.22009 206.67288"><path d="M30.18863,109.51727C29.8281,65.04372,61.32608,31.138,101.75051,28.54414c40.02422-2.56815,75.40893,26.82224,80.5892,66.86431,2.29731,17.75755-1.11953,34.32921-10.67748,49.40484-2.56633,4.04784-1.60115,6.0939,1.36591,9.05321q29.76489,29.68707,59.244,59.66063c5.41325,5.47333,5.43214,7.14091.51183,13.11388a38.84891,38.84891,0,0,1-2.83863,3.09673c-7.14014,6.97016-8.57665,7.16833-15.7265.16225q-29.38158-28.79084-58.39-57.95934c-3.42812-3.46724-5.597-4.08123-10.01746-1.49353-24.98723,14.62717-50.79551,15.25363-76.07087,1.42508C43.912,157.74106,31.23965,134.9356,30.18863,109.51727Zm127.00159-4.09687c.1847-29.55894-21.70288-51.31785-52.3535-51.22106-25.08707.07922-49.49291,22.15157-49.09011,50.43283.40382,28.3521,21.87817,51.07319,49.48118,51.1975C134.86774,155.96315,157.00862,134.484,157.19022,105.4204Z" transform="translate(-30.18557 -28.38795)"/></svg>